<?xml version="1.0" standalone="no"?>
<!DOCTYPE svg PUBLIC "-//W3C//DTD SVG 20010904//EN"
 "http://www.w3.org/TR/2001/REC-SVG-20010904/DTD/svg10.dtd">
<svg version="1.0" xmlns="http://www.w3.org/2000/svg"
 width="1521.000000pt" height="1521.000000pt" viewBox="0 0 1521.000000 1521.000000"
 preserveAspectRatio="xMidYMid meet">
<metadata>
Created by potrace 1.14, written by Peter Selinger 2001-2017
</metadata>
<g transform="translate(0.000000,1521.000000) scale(0.100000,-0.100000)"
fill="#000000" stroke="none">
<path d="M8435 13600 c-66 -5 -426 -15 -800 -24 -374 -8 -707 -17 -740 -18
l-60 -3 92 -55 c124 -74 431 -309 519 -396 39 -40 95 -107 124 -150 119 -179
624 -1234 1885 -3934 309 -663 764 -1635 1010 -2160 1577 -3365 1723 -3696
1741 -3950 7 -89 -22 -291 -61 -426 -99 -342 -368 -657 -673 -789 -44 -19 -85
-35 -91 -35 -6 0 -11 -4 -11 -9 0 -17 208 -20 1435 -20 1374 1 1390 2 1547 59
253 92 517 334 718 658 78 127 85 170 84 492 l-2 275 -1107 2325 c-609 1279
-1298 2728 -1530 3220 -696 1475 -1610 3397 -1902 4000 -158 326 -275 502
-435 656 -178 170 -349 255 -556 273 -142 13 -1034 21 -1187 11z"/>
<path d="M5900 13454 c-76 -51 -225 -218 -334 -376 -80 -116 -110 -179 -296
-623 -808 -1927 -1411 -3295 -2290 -5195 -1168 -2525 -1759 -3827 -1927 -4245
-36 -90 -44 -138 -44 -259 1 -289 115 -565 325 -785 152 -158 333 -265 551
-323 78 -21 102 -22 905 -28 454 -4 2285 -5 4070 -3 l3245 5 110 30 c185 50
371 154 504 281 56 54 165 196 218 283 73 120 160 361 190 526 10 57 17 147
17 233 l1 140 -54 125 c-332 776 -1181 2636 -1666 3655 -31 66 -92 194 -135
285 -43 91 -108 228 -145 305 -124 258 -182 379 -255 530 -40 83 -98 204 -130
270 -32 66 -90 188 -130 270 -40 83 -98 204 -130 270 -31 66 -207 431 -390
810 -183 380 -354 735 -380 790 -26 55 -87 181 -135 280 -48 99 -102 212 -120
250 -18 39 -92 191 -164 339 -72 148 -131 270 -131 271 0 2 -61 128 -136 281
-74 154 -190 392 -257 529 -396 816 -480 951 -640 1030 -67 32 -171 65 -207
65 -8 0 -27 -7 -40 -16z"/>
</g>
</svg>
